<?xml version="1.0" standalone="no"?>
<!DOCTYPE svg PUBLIC "-//W3C//DTD SVG 20010904//EN"
 "http://www.w3.org/TR/2001/REC-SVG-20010904/DTD/svg10.dtd">
<svg version="1.0" xmlns="http://www.w3.org/2000/svg"
 width="128.000000pt" height="128.000000pt" viewBox="0 0 128.000000 128.000000"
 preserveAspectRatio="xMidYMid meet">
<metadata>
Created by potrace 1.14, written by Peter Selinger 2001-2017
</metadata>
<g transform="translate(0.000000,128.000000) scale(0.100000,-0.100000)"
fill="#000000" stroke="none">
<path d="M245 1078 c-2 -7 -31 -86 -65 -176 -33 -89 -60 -169 -60 -176 0 -10
14 -13 51 -12 27 1 55 -1 60 -5 8 -4 -33 -121 -81 -234 -28 -64 -40 -99 -35
-103 3 -3 28 -5 55 -5 55 2 57 -1 35 -54 -10 -23 -12 -39 -6 -43 6 -3 105 -5
220 -5 l210 1 -6 -26 c-3 -14 -10 -33 -14 -42 -5 -9 -6 -19 -2 -21 11 -6 394
-7 414 -1 9 2 16 10 16 17 0 6 26 83 56 169 31 86 60 173 66 193 l10 36 -37
-1 c-89 -4 -87 -15 -27 133 76 188 74 174 18 171 -61 -2 -64 0 -48 34 7 15 16
37 20 50 l6 22 -231 0 -232 0 6 23 c3 12 9 32 12 45 l6 22 -206 0 c-156 0
-208 -3 -211 -12z m377 -23 c-2 -6 -5 -20 -9 -32 -5 -22 -9 -23 -123 -23 -122
0 -150 -9 -150 -46 0 -8 -4 -22 -10 -32 -10 -18 -27 -59 -56 -134 l-19 -48
-52 0 c-29 0 -53 2 -53 4 0 3 77 212 97 266 4 8 7 17 8 20 12 36 12 36 193 35
110 0 176 -4 174 -10z m-40 -117 c-8 -21 -18 -39 -21 -39 -3 -1 -33 -2 -66 -3
l-60 -1 -31 -75 -31 -75 -47 -3 c-27 -2 -46 0 -43 5 9 17 36 81 62 150 16 41
34 73 43 75 9 2 59 3 112 3 l96 0 -14 -37z m478 22 c-1 -8 -7 -26 -15 -40
l-13 -25 -220 -1 -219 0 15 37 c10 25 22 39 36 41 11 2 110 3 219 3 169 0 197
-2 197 -15z m-708 -266 c-2 -11 -20 -57 -39 -104 -19 -47 -36 -89 -37 -95 -5
-19 -26 -70 -35 -85 -5 -9 -24 -16 -50 -16 -32 -1 -41 2 -41 15 0 9 4 21 9 26
4 6 31 71 60 145 l52 136 42 -2 c35 -1 41 -5 39 -20z m778 -139 c0 -13 -107
-325 -118 -344 -7 -12 -42 -15 -186 -14 -97 0 -180 4 -184 7 -3 4 0 19 9 34
l15 27 129 0 130 0 47 120 c75 189 69 180 117 180 22 0 41 -5 41 -10z"/>
</g>
</svg>
